<svg width="28" height="28" viewBox="0 0 28 28" fill="none" xmlns="http://www.w3.org/2000/svg">
<rect x="0.165039" y="0.378174" width="27.4737" height="27.4737" rx="13.7369" fill="#2092E3"/>
<g clip-path="url(#clip0_431_5888)">
<path fill-rule="evenodd" clip-rule="evenodd" d="M21.0243 9.13882C21.0799 9.19429 21.124 9.26019 21.1541 9.33274C21.1842 9.40529 21.1997 9.48307 21.1997 9.56162C21.1997 9.64017 21.1842 9.71795 21.1541 9.7905C21.124 9.86305 21.0799 9.92895 21.0243 9.98442L12.6638 18.3449C12.6084 18.4005 12.5425 18.4446 12.4699 18.4747C12.3974 18.5048 12.3196 18.5203 12.241 18.5203C12.1625 18.5203 12.0847 18.5048 12.0122 18.4747C11.9396 18.4446 11.8737 18.4005 11.8182 18.3449L7.63802 14.1646C7.52589 14.0525 7.46289 13.9004 7.46289 13.7418C7.46289 13.5833 7.52589 13.4312 7.63802 13.319C7.75015 13.2069 7.90224 13.1439 8.06082 13.1439C8.2194 13.1439 8.37149 13.2069 8.48362 13.319L12.241 17.0777L20.1787 9.13882C20.2342 9.08321 20.3001 9.03909 20.3726 9.00898C20.4452 8.97888 20.523 8.96338 20.6015 8.96338C20.68 8.96338 20.7578 8.97888 20.8304 9.00898C20.9029 9.03909 20.9688 9.08321 21.0243 9.13882Z" fill="white"/>
</g>
<defs>
<clipPath id="clip0_431_5888">
<rect width="13.7369" height="9.44409" fill="white" transform="translate(7.03369 8.96338)"/>
</clipPath>
</defs>
</svg>
