<svg width="160" height="163" viewBox="0 0 160 163" fill="none" xmlns="http://www.w3.org/2000/svg">
<g filter="url(#filter0_d_431_5807)">
<rect x="15.8711" y="5.66699" width="128" height="130.667" rx="32" fill="white" shape-rendering="crispEdges"/>
<path fill-rule="evenodd" clip-rule="evenodd" d="M81.0157 44.7363C69.6064 50.927 71.4397 69.711 83.8144 73.419C92.989 76.167 101.422 71.771 104.097 62.847C108.014 49.771 93.1837 38.135 81.0157 44.7363ZM55.665 74.1936L51.4874 75.9271C50.9895 76.1337 50.665 76.6196 50.665 77.1586V84.7923C50.665 94.035 50.989 94.3363 58.1344 91.7523C61.9704 90.3643 63.7704 90.695 74.0757 94.679L85.6917 99.171L96.9717 93.243C108.957 86.9456 110.858 84.9376 107.762 81.843C106.074 80.1536 104.85 80.343 98.081 83.3363C93.8197 85.2203 90.5214 86.3776 90.4294 86.1629C93.7627 82.1629 85.537 80.1683 77.269 76.487C66.157 71.5403 62.897 71.195 55.665 74.1936Z" fill="#019BEB"/>
<path d="M88.4888 66.8322V48.5324H90.4356V66.8322H88.4888ZM89.1897 64.7297C88.0994 64.7297 87.0547 64.5869 86.0553 64.3014C85.056 64.0029 84.2513 63.62 83.6413 63.1528L84.712 60.7777C85.2961 61.193 85.9839 61.537 86.7756 61.8095C87.5803 62.0691 88.3915 62.1989 89.2091 62.1989C89.8321 62.1989 90.3318 62.1405 90.7081 62.0237C91.0975 61.8939 91.383 61.7187 91.5647 61.498C91.7464 61.2774 91.8373 61.0243 91.8373 60.7388C91.8373 60.3754 91.6945 60.0899 91.409 59.8822C91.1235 59.6616 90.7471 59.4863 90.2799 59.3566C89.8126 59.2138 89.2935 59.084 88.7224 58.9672C88.1643 58.8374 87.5998 58.6817 87.0287 58.5C86.4706 58.3183 85.958 58.0847 85.4907 57.7991C85.0235 57.5136 84.6406 57.1372 84.3421 56.67C84.0566 56.2028 83.9138 55.6057 83.9138 54.8789C83.9138 54.1002 84.1215 53.3929 84.5368 52.7569C84.9651 52.108 85.6011 51.5953 86.4447 51.219C87.3013 50.8296 88.372 50.6349 89.6569 50.6349C90.5135 50.6349 91.3571 50.7388 92.1877 50.9464C93.0183 51.1411 93.7516 51.4396 94.3876 51.8419L93.4142 54.2365C92.7782 53.8731 92.1423 53.607 91.5063 53.4383C90.8704 53.2566 90.2474 53.1658 89.6374 53.1658C89.0274 53.1658 88.5277 53.2371 88.1384 53.3799C87.749 53.5227 87.47 53.7109 87.3013 53.9445C87.1325 54.1651 87.0482 54.4247 87.0482 54.7232C87.0482 55.0736 87.1909 55.3591 87.4765 55.5798C87.762 55.7874 88.1384 55.9562 88.6056 56.086C89.0728 56.2157 89.5855 56.3455 90.1436 56.4753C90.7146 56.6051 91.2792 56.7543 91.8373 56.9231C92.4083 57.0918 92.9275 57.3189 93.3947 57.6044C93.862 57.89 94.2383 58.2664 94.5239 58.7336C94.8224 59.2008 94.9716 59.7913 94.9716 60.5052C94.9716 61.2709 94.7575 61.9718 94.3292 62.6077C93.9009 63.2437 93.2584 63.7563 92.4019 64.1457C91.5582 64.535 90.4875 64.7297 89.1897 64.7297Z" fill="white"/>
<rect x="16.3711" y="6.16699" width="127" height="129.667" rx="31.5" stroke="#019BEB" stroke-opacity="0.85" shape-rendering="crispEdges"/>
</g>
<defs>
<filter id="filter0_d_431_5807" x="0.0486317" y="0.392839" width="159.645" height="162.311" filterUnits="userSpaceOnUse" color-interpolation-filters="sRGB">
<feFlood flood-opacity="0" result="BackgroundImageFix"/>
<feColorMatrix in="SourceAlpha" type="matrix" values="0 0 0 0 0 0 0 0 0 0 0 0 0 0 0 0 0 0 127 0" result="hardAlpha"/>
<feOffset dy="10.5483"/>
<feGaussianBlur stdDeviation="7.91123"/>
<feComposite in2="hardAlpha" operator="out"/>
<feColorMatrix type="matrix" values="0 0 0 0 0 0 0 0 0 0 0 0 0 0 0 0 0 0 0.02 0"/>
<feBlend mode="normal" in2="BackgroundImageFix" result="effect1_dropShadow_431_5807"/>
<feBlend mode="normal" in="SourceGraphic" in2="effect1_dropShadow_431_5807" result="shape"/>
</filter>
</defs>
</svg>
