<svg width="33" height="28" viewBox="0 0 33 28" fill="none" xmlns="http://www.w3.org/2000/svg">
<path fill-rule="evenodd" clip-rule="evenodd" d="M-0.891667 4.12238C-0.673227 3.1407 -0.136247 2.26419 0.63133 1.6364C1.39891 1.00861 2.35158 0.666757 3.33333 0.666824H29.3333C30.3151 0.666757 31.2678 1.00861 32.0353 1.6364C32.8029 2.26419 33.3399 3.1407 33.5583 4.12238L16.3333 14.9202L-0.891667 4.12238ZM-1 6.66016V22.4468L11.5732 14.5402L-1 6.66016ZM13.6488 15.8446L-0.586167 24.7935C-0.234459 25.5541 0.320641 26.1967 1.01453 26.6463C1.70841 27.096 2.51255 27.3343 3.33333 27.3335H29.3333C30.154 27.3337 30.9578 27.0949 31.6513 26.6448C32.3448 26.1947 32.8994 25.552 33.2507 24.7913L19.0157 15.8424L16.3333 17.5246L13.6488 15.8424V15.8446ZM21.0935 14.5424L33.6667 22.4468V6.66016L21.0935 14.5402V14.5424Z" fill="white"/>
</svg>
