<svg width="33" height="40" viewBox="0 0 33 40" fill="none" xmlns="http://www.w3.org/2000/svg">
<path d="M16.3335 23.9999C20.7454 23.9999 24.3334 20.4119 24.3334 16C24.3334 11.588 20.7454 8.00008 16.3335 8.00008C11.9215 8.00008 8.33355 11.588 8.33355 16C8.33355 20.4119 11.9215 23.9999 16.3335 23.9999ZM16.3335 12C18.5394 12 20.3334 13.794 20.3334 16C20.3334 18.206 18.5394 20 16.3335 20C14.1275 20 12.3335 18.206 12.3335 16C12.3335 13.794 14.1275 12 16.3335 12Z" fill="white"/>
<path d="M15.1735 39.6277C15.512 39.8694 15.9176 39.9994 16.3335 39.9994C16.7494 39.9994 17.155 39.8694 17.4935 39.6277C18.1015 39.1977 32.3913 28.8798 32.3333 16C32.3333 7.17807 25.1554 0.000144958 16.3335 0.000144958C7.51159 0.000144958 0.333672 7.17807 0.333672 15.99C0.275673 28.8798 14.5655 39.1977 15.1735 39.6277ZM16.3335 4.0001C22.9514 4.0001 28.3334 9.38204 28.3334 16.01C28.3754 24.8859 19.5575 32.8558 16.3335 35.4698C13.1115 32.8538 4.29163 24.8819 4.33363 16C4.33363 9.38204 9.71557 4.0001 16.3335 4.0001Z" fill="white"/>
</svg>
