<svg width="245" height="59" viewBox="0 0 245 59" fill="none" xmlns="http://www.w3.org/2000/svg">
<path d="M27.9521 50.8312C28.8122 27.8245 9.67573 12.8898 0 8.29834C39.0255 8.29834 48.0203 19.9451 47.6395 25.7684L27.9521 50.8312Z" fill="#0D4974"/>
<path d="M71.5601 19.1158C41.7938 3.52709 43.272 42.9692 5.17383 53.6528C84.1923 48.815 44.6159 24.9616 71.5601 19.1158Z" fill="#2092E3"/>
<path d="M18.8813 0.705078C26.071 9.26094 38.0716 31.5734 28.0195 51.3011C51.1338 51.3011 86.0067 30.2698 18.8813 0.705078Z" fill="#66B2E8"/>
<path d="M86.0124 29.0195H93.77C97.8717 29.0195 100.725 28.3656 102.33 27.0578C103.965 25.7203 104.782 24.145 104.782 22.332C104.782 20.9647 104.321 19.7015 103.4 18.5423C102.508 17.3831 101.245 16.6401 99.6105 16.3131C101.75 15.0053 102.821 13.1923 102.821 10.8739C102.821 9.26888 102.196 7.81248 100.948 6.50469C99.7294 5.16717 97.5299 4.49841 94.3496 4.49841H86.0124V29.0195ZM93.5471 8.28804C95.4196 8.28804 96.7274 8.55554 97.4704 9.09055C98.2135 9.62555 98.585 10.4132 98.585 11.4535C98.585 12.5235 98.1838 13.3112 97.3813 13.8164C96.6085 14.3217 95.3304 14.5744 93.5471 14.5744H90.3816V8.28804H93.5471ZM93.235 18.2302C95.7614 18.2302 97.5893 18.5423 98.7188 19.1665C99.878 19.761 100.458 20.6526 100.458 21.8415C100.458 23.1196 99.8631 23.9964 98.6742 24.472C97.515 24.9475 95.702 25.1853 93.235 25.1853H90.3816V18.2748L93.235 18.2302ZM107.591 29.0195H123.641V25.0516H111.96V4.49841H107.591V29.0195ZM135.64 29.4208C138.612 29.4208 140.826 28.9006 142.283 27.8604C143.769 26.8201 144.705 25.646 145.091 24.3382C145.507 23.0304 145.715 21.6335 145.715 20.1473V4.49841H141.346V19.9244C141.346 20.6972 141.302 21.3957 141.213 22.0199C140.915 23.0899 140.291 23.9221 139.34 24.5166C138.389 25.0813 137.155 25.3637 135.64 25.3637C134.183 25.3637 132.979 25.0813 132.028 24.5166C131.077 23.9221 130.468 23.0899 130.2 22.0199C130.052 21.3362 129.977 20.6378 129.977 19.9244V4.49841H125.653V20.1473C125.653 21.6335 125.846 23.0304 126.232 24.3382C126.648 25.646 127.585 26.8201 129.041 27.8604C130.527 28.9006 132.727 29.4208 135.64 29.4208ZM165.728 29.0195V25.0516H154.002V18.5423H164.39V14.5744H154.002V8.42179H165.728V4.49841H149.633V29.0195H165.728ZM169.087 29.0195H176.845C180.946 29.0195 183.8 28.3656 185.405 27.0578C187.039 25.7203 187.857 24.145 187.857 22.332C187.857 20.9647 187.396 19.7015 186.475 18.5423C185.583 17.3831 184.32 16.6401 182.685 16.3131C184.825 15.0053 185.895 13.1923 185.895 10.8739C185.895 9.26888 185.271 7.81248 184.023 6.50469C182.804 5.16717 180.604 4.49841 177.424 4.49841H169.087V29.0195ZM176.622 8.28804C178.494 8.28804 179.802 8.55554 180.545 9.09055C181.288 9.62555 181.66 10.4132 181.66 11.4535C181.66 12.5235 181.258 13.3112 180.456 13.8164C179.683 14.3217 178.405 14.5744 176.622 14.5744H173.456V8.28804H176.622ZM176.309 18.2302C178.836 18.2302 180.664 18.5423 181.793 19.1665C182.952 19.761 183.532 20.6526 183.532 21.8415C183.532 23.1196 182.938 23.9964 181.749 24.472C180.59 24.9475 178.776 25.1853 176.309 25.1853H173.456V18.2748L176.309 18.2302ZM190.665 29.0195H195.035V4.49841H190.665V29.0195ZM199.287 29.0195H203.656V19.434C204.548 19.4934 205.201 19.5232 205.618 19.5232C206.45 19.5232 207.089 19.5083 207.535 19.4786L213.152 29.0195H218.101L211.948 18.7652C215.575 17.5466 217.388 15.1985 217.388 11.721C217.388 6.90594 214.029 4.49841 207.312 4.49841H199.287V29.0195ZM206.866 8.42179C208.768 8.42179 210.254 8.65957 211.324 9.13513C212.424 9.58097 212.974 10.4726 212.974 11.8102C212.974 13.3557 212.335 14.3812 211.057 14.8865C209.808 15.362 208.055 15.5998 205.796 15.5998C205.112 15.5998 204.399 15.5552 203.656 15.466V8.42179H206.866ZM220.621 29.0195H226.729C228.186 29.0195 229.375 28.9898 230.296 28.9304C231.247 28.8709 232.198 28.7372 233.149 28.5291C236.3 27.6374 238.559 26.0621 239.926 23.8032C241.323 21.5443 242.022 18.9436 242.022 16.001C242.022 14.0691 241.62 12.2411 240.818 10.5172C240.015 8.79332 238.633 7.36664 236.671 6.23718C234.739 5.078 232.154 4.49841 228.914 4.49841H220.621V29.0195ZM229.003 8.42179C231.797 8.42179 233.922 9.12027 235.379 10.5172C236.835 11.8845 237.563 13.9056 237.563 16.5806C237.563 17.6209 237.459 18.5423 237.251 19.3448C237.043 20.1176 236.79 20.7269 236.493 21.1728C235.661 22.8075 234.487 23.8627 232.971 24.3382C231.455 24.8138 229.746 25.0516 227.844 25.0516H224.99V8.42179H229.003Z" fill="white"/>
<path d="M92.2578 35.5505C93.0374 35.5505 93.7836 35.6396 94.4963 35.8178C95.2313 35.9737 96.0221 36.2187 96.8684 36.5528L97.9376 33.5793L97.5701 33.4457C96.7905 33.1784 95.9886 32.9557 95.1645 32.7775C94.3404 32.577 93.3381 32.4768 92.1576 32.4768C90.7766 32.4768 89.5627 32.6995 88.5159 33.145C87.469 33.5905 86.6672 34.203 86.1103 34.9826C85.5535 35.7621 85.2751 36.6531 85.2751 37.6554C85.2751 38.7913 85.5646 39.7268 86.1437 40.4619C86.7228 41.1746 87.4245 41.7203 88.2486 42.099C89.0727 42.4776 90.1196 42.8674 91.3892 43.2683C92.7256 43.6693 93.6945 44.0479 94.2959 44.4043C94.8972 44.7384 95.1868 45.2395 95.1645 45.9077C95.1645 46.5982 94.797 47.1551 94.062 47.5783C93.327 47.9792 92.3581 48.1797 91.1553 48.1797C89.8411 48.1797 88.1706 47.801 86.1437 47.0437L85.6426 46.8432L84.54 49.8168L84.9744 50.0172C86.1326 50.4627 87.146 50.7968 88.0147 51.0195C88.8834 51.22 89.8411 51.3202 90.888 51.3202C92.6699 51.3202 94.1288 51.0641 95.2648 50.5518C96.423 50.0172 97.2582 49.349 97.7705 48.5472C98.2828 47.723 98.539 46.8432 98.539 45.9077C98.539 44.7718 98.2383 43.8363 97.6369 43.1013C97.0355 42.3662 96.3116 41.8094 95.4652 41.4308C94.6411 41.0521 93.5831 40.6623 92.2912 40.2614C91.0216 39.8605 90.0861 39.493 89.4848 39.1589C88.9056 38.8248 88.6161 38.3681 88.6161 37.789C88.6161 37.0985 88.9391 36.5528 89.585 36.1519C90.2309 35.751 91.1219 35.5505 92.2578 35.5505ZM112.673 51.0195V48.046H103.886V43.1681H111.671V40.1946H103.886V35.5839H112.673V32.6438H100.612V51.0195H112.673ZM122.53 40.7626V43.6693H127.341V47.5783C126.896 47.8233 126.439 48.0015 125.972 48.1128C125.526 48.2242 124.947 48.2799 124.234 48.2799C122.92 48.2799 121.74 48.0015 120.693 47.4446C119.668 46.8655 118.855 46.0748 118.254 45.0725C117.675 44.0702 117.385 42.9454 117.385 41.698C117.385 40.4507 117.686 39.3593 118.287 38.4238C118.889 37.4661 119.679 36.7422 120.659 36.2522C121.639 35.7399 122.686 35.4837 123.8 35.4837C124.646 35.4837 125.47 35.6062 126.272 35.8512C127.096 36.074 127.82 36.3524 128.444 36.6865L128.912 36.8869L130.282 34.3812L129.814 34.1139C127.921 33.0225 125.882 32.4768 123.7 32.4768C121.717 32.4768 119.991 32.9111 118.521 33.7798C117.073 34.6485 115.971 35.7955 115.213 37.2211C114.456 38.6466 114.077 40.1834 114.077 41.8317C114.077 43.4131 114.434 44.9277 115.147 46.3755C115.859 47.8233 116.94 49.0149 118.387 49.9504C119.835 50.8636 121.606 51.3202 123.7 51.3202C126.64 51.2534 128.923 50.5184 130.549 49.1151V40.7626H122.53ZM140.036 51.3202C142.263 51.3202 143.923 50.9304 145.014 50.1509C146.128 49.3713 146.829 48.4915 147.119 47.5114C147.431 46.5314 147.587 45.4845 147.587 44.3709V32.6438H144.313V44.2038C144.313 44.7829 144.279 45.3064 144.212 45.7741C143.99 46.576 143.522 47.1996 142.809 47.6451C142.096 48.0683 141.172 48.2799 140.036 48.2799C138.945 48.2799 138.043 48.0683 137.33 47.6451C136.617 47.1996 136.16 46.576 135.96 45.7741C135.849 45.2618 135.793 44.7384 135.793 44.2038V32.6438H132.552V44.3709C132.552 45.4845 132.697 46.5314 132.986 47.5114C133.298 48.4915 134 49.3713 135.091 50.1509C136.205 50.9304 137.853 51.3202 140.036 51.3202ZM150.178 51.0195H153.452V43.8363C154.12 43.8809 154.61 43.9031 154.922 43.9031C155.546 43.9031 156.025 43.892 156.359 43.8697L160.569 51.0195H164.277L159.667 43.3351C162.384 42.4219 163.743 40.6623 163.743 38.0563C163.743 34.448 161.226 32.6438 156.192 32.6438H150.178V51.0195ZM155.858 35.5839C157.283 35.5839 158.397 35.7621 159.199 36.1185C160.023 36.4526 160.435 37.1208 160.435 38.1231C160.435 39.2814 159.956 40.0498 158.998 40.4284C158.063 40.7848 156.749 40.963 155.056 40.963C154.544 40.963 154.009 40.9296 153.452 40.8628V35.5839H155.858ZM174.14 32.41C172.447 32.41 170.911 32.8109 169.53 33.6127C168.149 34.3923 167.057 35.4949 166.255 36.9204C165.454 38.3459 165.053 39.983 165.053 41.8317C165.053 43.814 165.476 45.518 166.322 46.9435C167.169 48.369 168.271 49.4492 169.63 50.1843C171.011 50.897 172.481 51.2534 174.04 51.2534C175.777 51.2534 177.337 50.8525 178.718 50.0506C180.121 49.2265 181.212 48.0906 181.992 46.6428C182.794 45.1727 183.194 43.5133 183.194 41.6646C183.194 39.8159 182.794 38.19 181.992 36.7867C181.19 35.3835 180.098 34.3032 178.718 33.5459C177.359 32.7886 175.833 32.41 174.14 32.41ZM174.007 35.4503C174.964 35.4503 175.889 35.673 176.78 36.1185C177.671 36.564 178.406 37.2656 178.985 38.2234C179.564 39.1811 179.853 40.3839 179.853 41.8317C179.853 43.2572 179.586 44.4488 179.052 45.4066C178.517 46.3644 177.815 47.066 176.947 47.5114C176.1 47.9569 175.198 48.1797 174.241 48.1797C173.149 48.1797 172.158 47.9124 171.267 47.3778C170.376 46.8432 169.674 46.0859 169.162 45.1059C168.65 44.1036 168.394 42.9454 168.394 41.6312C168.394 40.228 168.661 39.0698 169.196 38.1565C169.73 37.2211 170.421 36.5417 171.267 36.1185C172.113 35.673 173.027 35.4503 174.007 35.4503ZM192.198 35.5505C192.978 35.5505 193.724 35.6396 194.437 35.8178C195.172 35.9737 195.963 36.2187 196.809 36.5528L197.878 33.5793L197.511 33.4457C196.731 33.1784 195.929 32.9557 195.105 32.7775C194.281 32.577 193.279 32.4768 192.098 32.4768C190.717 32.4768 189.503 32.6995 188.456 33.145C187.41 33.5905 186.608 34.203 186.051 34.9826C185.494 35.7621 185.216 36.6531 185.216 37.6554C185.216 38.7913 185.505 39.7268 186.084 40.4619C186.663 41.1746 187.365 41.7203 188.189 42.099C189.013 42.4776 190.06 42.8674 191.33 43.2683C192.666 43.6693 193.635 44.0479 194.236 44.4043C194.838 44.7384 195.127 45.2395 195.105 45.9077C195.105 46.5982 194.738 47.1551 194.003 47.5783C193.267 47.9792 192.299 48.1797 191.096 48.1797C189.782 48.1797 188.111 47.801 186.084 47.0437L185.583 46.8432L184.481 49.8168L184.915 50.0172C186.073 50.4627 187.087 50.7968 187.955 51.0195C188.824 51.22 189.782 51.3202 190.829 51.3202C192.61 51.3202 194.069 51.0641 195.205 50.5518C196.364 50.0172 197.199 49.349 197.711 48.5472C198.223 47.723 198.48 46.8432 198.48 45.9077C198.48 44.7718 198.179 43.8363 197.577 43.1013C196.976 42.3662 196.252 41.8094 195.406 41.4308C194.582 41.0521 193.524 40.6623 192.232 40.2614C190.962 39.8605 190.027 39.493 189.425 39.1589C188.846 38.8248 188.557 38.3681 188.557 37.789C188.557 37.0985 188.88 36.5528 189.526 36.1519C190.171 35.751 191.062 35.5505 192.198 35.5505Z" fill="#9BB4C6"/>
</svg>
