<svg width="159" height="162" viewBox="0 0 159 162" fill="none" xmlns="http://www.w3.org/2000/svg">
<g filter="url(#filter0_d_431_5789)">
<rect x="15.7959" y="5.66699" width="128" height="130.667" rx="32" fill="white" shape-rendering="crispEdges"/>
<path fill-rule="evenodd" clip-rule="evenodd" d="M49.7959 59.889V71.889C49.7959 72.6254 50.3929 73.2223 51.1292 73.2223H51.4937C52.7174 73.2223 56.1433 76.3223 63.7722 84.3334C72.4366 93.4327 74.724 95.4445 76.404 95.4445C78.4574 95.4445 80.907 93.4986 80.907 91.8675C80.907 91.3905 81.8552 91.0001 83.0144 91.0001C85.1152 91.0001 87.5737 89.0712 87.5737 87.4231C87.5737 86.946 88.5218 86.5557 89.6811 86.5557C91.7818 86.5557 94.2403 84.6268 94.2403 82.9786C94.2403 82.5016 95.1885 82.1112 96.3478 82.1112C98.8989 82.1112 100.907 80.0816 100.907 77.5046C100.907 76.052 99.1855 74.0201 93.5529 68.8275L86.1996 62.0468L79.6626 63.1808C71.9107 64.526 68.6011 63.9164 65.8389 60.6334C63.7011 58.0927 62.6663 53.249 63.807 51.1171C64.2411 50.306 66.2663 49.0875 68.307 48.4097C70.3485 47.732 72.0181 47.0371 72.0181 46.8668C72.0181 46.6957 67.0181 46.5557 60.907 46.5557H51.1292C50.3929 46.5557 49.7959 47.1526 49.7959 47.889V59.889ZM76.8329 49.7631C69.2026 52.4446 67.9092 53.1305 67.6981 54.6083C67.5485 55.6505 68.1337 57.0631 69.1796 58.1875C71.0507 60.1986 69.97 60.1608 83.6966 58.6905L87.9685 58.2334L95.8774 65.4046C101.31 70.3305 104.049 73.3734 104.626 75.1216C105.328 77.249 105.822 77.6668 107.631 77.6668H108.463C109.199 77.6668 109.796 77.0698 109.796 76.3334V64.2468V52.5583C109.796 51.689 108.966 51.0598 108.129 51.2942C102.143 52.9705 100.42 52.7549 94.6944 49.6127C91.6315 47.9312 88.3596 46.5749 87.4233 46.5979C86.4878 46.6208 81.7218 48.0453 76.8329 49.7631Z" fill="#019BEB"/>
<rect x="16.2959" y="6.16699" width="127" height="129.667" rx="31.5" stroke="#019BEB" stroke-opacity="0.85" shape-rendering="crispEdges"/>
</g>
<defs>
<filter id="filter0_d_431_5789" x="0.892931" y="0.699336" width="157.806" height="160.472" filterUnits="userSpaceOnUse" color-interpolation-filters="sRGB">
<feFlood flood-opacity="0" result="BackgroundImageFix"/>
<feColorMatrix in="SourceAlpha" type="matrix" values="0 0 0 0 0 0 0 0 0 0 0 0 0 0 0 0 0 0 127 0" result="hardAlpha"/>
<feOffset dy="9.93531"/>
<feGaussianBlur stdDeviation="7.45148"/>
<feComposite in2="hardAlpha" operator="out"/>
<feColorMatrix type="matrix" values="0 0 0 0 0 0 0 0 0 0 0 0 0 0 0 0 0 0 0.02 0"/>
<feBlend mode="normal" in2="BackgroundImageFix" result="effect1_dropShadow_431_5789"/>
<feBlend mode="normal" in="SourceGraphic" in2="effect1_dropShadow_431_5789" result="shape"/>
</filter>
</defs>
</svg>
