<svg width="32" height="31" viewBox="0 0 32 31" fill="none" xmlns="http://www.w3.org/2000/svg">
<path d="M24.4646 16.6358C24.3161 16.4871 24.1398 16.3691 23.9457 16.2886C23.7516 16.2081 23.5435 16.1667 23.3334 16.1667C23.1233 16.1667 22.9152 16.2081 22.7211 16.2886C22.527 16.3691 22.3507 16.4871 22.2022 16.6358L19.6519 19.1862C18.4695 18.8342 16.2631 18.0342 14.8647 16.6358C13.4663 15.2374 12.6663 13.031 12.3143 11.8486L14.8647 9.29826C15.0134 9.1498 15.1314 8.97348 15.2119 8.77938C15.2924 8.58527 15.3338 8.3772 15.3338 8.16707C15.3338 7.95694 15.2924 7.74887 15.2119 7.55477C15.1314 7.36067 15.0134 7.18434 14.8647 7.03588L8.46476 0.635949C8.31631 0.487237 8.13998 0.369258 7.94588 0.288762C7.75178 0.208265 7.54371 0.166832 7.33358 0.166832C7.12344 0.166832 6.91537 0.208265 6.72127 0.288762C6.52717 0.369258 6.35085 0.487237 6.20239 0.635949L1.86323 4.97511C1.25524 5.5831 0.91284 6.41829 0.925639 7.27108C0.962439 9.54946 1.56563 17.463 7.80237 23.6997C14.0391 29.9365 21.9526 30.538 24.2326 30.5764H24.2774C25.1222 30.5764 25.9206 30.2436 26.5254 29.6389L30.8645 25.2997C31.0133 25.1512 31.1312 24.9749 31.2117 24.7808C31.2922 24.5867 31.3337 24.3786 31.3337 24.1685C31.3337 23.9584 31.2922 23.7503 31.2117 23.5562C31.1312 23.3621 31.0133 23.1858 30.8645 23.0373L24.4646 16.6358ZM24.2614 27.3749C22.2646 27.3413 15.4327 26.8053 10.0647 21.4357C4.6792 16.0502 4.15761 9.19426 4.12561 7.23748L7.33358 4.02951L11.4711 8.16707L9.40236 10.2359C9.2143 10.4238 9.07603 10.6556 9.00004 10.9104C8.92406 11.1651 8.91276 11.4348 8.96716 11.695C9.00556 11.879 9.94475 16.2422 12.6007 18.8982C15.2567 21.5541 19.6199 22.4933 19.8039 22.5317C20.0639 22.5877 20.3339 22.5773 20.5889 22.5015C20.8439 22.4257 21.0757 22.287 21.263 22.0981L23.3334 20.0294L27.471 24.1669L24.2614 27.3749Z" fill="white"/>
</svg>
